<svg width="31" height="31" viewBox="0 0 31 31" fill="none" xmlns="http://www.w3.org/2000/svg">
<circle cx="15.5" cy="15.5" r="15.5" fill="#FF8562"/>
<path d="M17.026 15.4991L21.6799 10.8554C21.8837 10.6516 21.9982 10.3751 21.9982 10.0869C21.9982 9.79861 21.8837 9.52216 21.6799 9.31834C21.4761 9.11451 21.1997 9 20.9114 9C20.6232 9 20.3468 9.11451 20.143 9.31834L15.5 13.9728L10.857 9.31834C10.6532 9.11451 10.3768 9 10.0886 9C9.80035 9 9.52394 9.11451 9.32014 9.31834C9.11634 9.52216 9.00185 9.79861 9.00185 10.0869C9.00185 10.3751 9.11634 10.6516 9.32014 10.8554L13.974 15.4991L9.32014 20.1427C9.2187 20.2434 9.13818 20.3631 9.08324 20.495C9.02829 20.6269 9 20.7684 9 20.9113C9 21.0542 9.02829 21.1957 9.08324 21.3276C9.13818 21.4595 9.2187 21.5792 9.32014 21.6798C9.42075 21.7813 9.54045 21.8618 9.67234 21.9168C9.80423 21.9717 9.94569 22 10.0886 22C10.2314 22 10.3729 21.9717 10.5048 21.9168C10.6367 21.8618 10.7564 21.7813 10.857 21.6798L15.5 17.0253L20.143 21.6798C20.2436 21.7813 20.3633 21.8618 20.4952 21.9168C20.6271 21.9717 20.7686 22 20.9114 22C21.0543 22 21.1958 21.9717 21.3277 21.9168C21.4595 21.8618 21.5792 21.7813 21.6799 21.6798C21.7813 21.5792 21.8618 21.4595 21.9168 21.3276C21.9717 21.1957 22 21.0542 22 20.9113C22 20.7684 21.9717 20.6269 21.9168 20.495C21.8618 20.3631 21.7813 20.2434 21.6799 20.1427L17.026 15.4991Z" fill="white"/>
</svg>
